<svg data-logo="logo" xmlns="http://www.w3.org/2000/svg" viewBox="0 0 191.66000366210938 100.35">
  <g id="logogram" transform="
    translate(70.33000183105469, 0)
    rotate(0 25.5 20.5)
    
  ">
    <path d="M13.0832 0.429993L23.4173 9.25886C24.0309 9.78301 24.3845 10.5522 24.3845 11.3623V18.0162L14.0503 9.18733C13.4368 8.66319 13.0832 7.894 13.0832 7.08386V0.429993Z" fill="#FFF"/>
    <path d="M13.0832 40.43L23.4173 31.6011C24.0309 31.077 24.3845 30.3078 24.3845 29.4977V22.8438L14.0503 31.6727C13.4368 32.1968 13.0832 32.966 13.0832 33.7761V40.43Z" fill="#FFF"/>
    <path d="M0.754395 9.74034L10.948 18.4005C11.4422 18.8204 12.0681 19.0507 12.7147 19.0507H20.9354L10.7669 10.3925C10.2723 9.9714 9.64557 9.74034 8.99786 9.74034H0.754395Z" fill="#FFF"/>
    <path d="M0.754395 31.1196L10.8853 22.4645C11.3804 22.0415 12.0086 21.8093 12.6578 21.8093H20.9599L10.7663 30.4694C10.2721 30.8893 9.64625 31.1196 8.99957 31.1196H0.754395Z" fill="#FFF"/>
    <path d="M38.4256 0.429993L28.0914 9.25886C27.4779 9.78301 27.1243 10.5522 27.1243 11.3623V18.0162L37.4584 9.18733C38.072 8.66319 38.4256 7.894 38.4256 7.08386V0.429993Z" fill="#FFF"/>
    <path d="M38.4256 40.43L28.0914 31.6011C27.4779 31.077 27.1243 30.3078 27.1243 29.4977V22.8438L37.4584 31.6727C38.072 32.1968 38.4256 32.966 38.4256 33.7761V40.43Z" fill="#FFF"/>
    <path d="M50.7544 9.74034L40.5608 18.4005C40.0666 18.8204 39.4407 19.0507 38.7941 19.0507H30.5733L40.7419 10.3925C41.2364 9.9714 41.8632 9.74034 42.5109 9.74034H50.7544Z" fill="#FFF"/>
    <path d="M50.7544 31.1196L40.6235 22.4645C40.1284 22.0415 39.5002 21.8093 38.851 21.8093H30.5489L40.7425 30.4694C41.2367 30.8893 41.8625 31.1196 42.5092 31.1196H50.7544Z" fill="#FFF"/>
  </g>
  <g id="logotype" transform="translate(-9.5, 74)">
    <path fill="#FFF" d="M10.45 0.50L10.45 0.50L32.70 0.50Q33.09 0.50 33.37 0.78Q33.65 1.06 33.65 1.44L33.65 1.44L33.65 6.76Q33.65 7.15 33.37 7.43Q33.09 7.71 32.70 7.71L32.70 7.71L18.95 7.71L18.95 9.95L30.43 9.95Q30.82 9.95 31.10 10.23Q31.38 10.51 31.38 10.89L31.38 10.89L31.38 16.18Q31.38 16.56 31.10 16.84Q30.82 17.13 30.43 17.13L30.43 17.13L18.95 17.13L18.95 24.05Q18.95 24.44 18.67 24.72Q18.39 25 18.01 25L18.01 25L10.45 25Q10.06 25 9.78 24.72Q9.50 24.44 9.50 24.05L9.50 24.05L9.50 1.44Q9.50 1.06 9.78 0.78Q10.06 0.50 10.45 0.50ZM59.97 7.67L59.97 7.67L53.64 7.67L53.64 17.82L59.97 17.82Q60.36 17.82 60.64 18.11Q60.92 18.38 60.92 18.77L60.92 18.77L60.92 24.05Q60.92 24.44 60.64 24.72Q60.36 25 59.97 25L59.97 25L37.78 25Q37.40 25 37.12 24.72Q36.84 24.44 36.84 24.05L36.84 24.05L36.84 18.77Q36.84 18.38 37.12 18.11Q37.40 17.82 37.78 17.82L37.78 17.82L44.19 17.82L44.19 7.67L37.78 7.67Q37.40 7.67 37.12 7.39Q36.84 7.11 36.84 6.73L36.84 6.73L36.84 1.44Q36.84 1.06 37.12 0.78Q37.40 0.50 37.78 0.50L37.78 0.50L59.97 0.50Q60.36 0.50 60.64 0.78Q60.92 1.06 60.92 1.44L60.92 1.44L60.92 6.73Q60.92 7.11 60.64 7.39Q60.36 7.67 59.97 7.67ZM81.32 0.50L81.32 0.50L87.83 0.50Q88.22 0.50 88.50 0.78Q88.78 1.06 88.78 1.44L88.78 1.44L88.78 24.05Q88.78 24.44 88.50 24.72Q88.22 25 87.83 25L87.83 25L82.19 25Q81.36 25 80.80 24.27L80.80 24.27L73.17 14.53L73.17 24.05Q73.17 24.44 72.89 24.72Q72.61 25 72.22 25L72.22 25L65.71 25Q65.33 25 65.05 24.72Q64.77 24.44 64.77 24.05L64.77 24.05L64.77 1.44Q64.77 1.06 65.05 0.78Q65.33 0.50 65.71 0.50L65.71 0.50L71.38 0.50Q72.22 0.50 72.75 1.20L72.75 1.20L80.38 11.73L80.38 1.44Q80.38 1.06 80.66 0.78Q80.94 0.50 81.32 0.50ZM98.26 25L98.26 25L91.64 25Q91.33 25 91.10 24.77Q90.88 24.55 90.88 24.34Q90.88 24.13 90.91 24.02L90.91 24.02L98.54 1.65Q98.86 0.50 100.11 0.50L100.11 0.50L109.84 0.50Q111.11 0.50 111.42 1.65L111.42 1.65L119.05 24.02Q119.09 24.13 119.09 24.34Q119.09 24.55 118.86 24.77Q118.63 25 118.31 25L118.31 25L111.70 25Q110.58 25 110.13 23.81L110.13 23.81L109.25 21.36L100.71 21.36L99.84 23.81Q99.38 25 98.26 25ZM102.50 14.53L107.47 14.53L104.98 7.25L102.50 14.53ZM137.32 0.50L137.32 0.50L143.83 0.50Q144.22 0.50 144.50 0.78Q144.78 1.06 144.78 1.44L144.78 1.44L144.78 24.05Q144.78 24.44 144.50 24.72Q144.22 25 143.83 25L143.83 25L138.19 25Q137.35 25 136.80 24.27L136.80 24.27L129.16 14.53L129.16 24.05Q129.16 24.44 128.88 24.72Q128.60 25 128.22 25L128.22 25L121.71 25Q121.33 25 121.05 24.72Q120.77 24.44 120.77 24.05L120.77 24.05L120.77 1.44Q120.77 1.06 121.05 0.78Q121.33 0.50 121.71 0.50L121.71 0.50L127.38 0.50Q128.22 0.50 128.75 1.20L128.75 1.20L136.38 11.73L136.38 1.44Q136.38 1.06 136.66 0.78Q136.94 0.50 137.32 0.50ZM157.66 9.95L157.66 9.95L157.66 15.55Q157.66 16.98 158.62 17.75Q159.58 18.52 161.14 18.52Q162.69 18.52 163.40 18.04Q164.09 17.54 164.57 16.60Q165.04 15.65 165.81 15.65L165.81 15.65L173.37 15.65Q173.69 15.65 173.91 15.88Q174.14 16.11 174.14 16.42L174.14 16.42Q174.14 19.68 171.06 22.38L171.06 22.38Q169.52 23.70 166.97 24.53Q164.41 25.35 160.94 25.35Q157.48 25.35 154.63 24.28Q151.78 23.21 149.99 20.78Q148.21 18.35 148.21 14.81L148.21 14.81L148.21 10.68Q148.21 7.15 149.99 4.70L149.99 4.70Q153.35 0.15 161.22 0.15L161.22 0.15Q164.41 0.15 166.97 0.97Q169.52 1.79 171.06 3.12L171.06 3.12Q174.14 5.82 174.14 9.07L174.14 9.07Q174.14 9.39 173.91 9.62Q173.69 9.84 173.37 9.84L173.37 9.84L165.81 9.84Q165.04 9.84 164.57 8.90Q164.09 7.95 163.40 7.46Q162.69 6.97 161.14 6.97Q159.58 6.97 158.62 7.74Q157.66 8.51 157.66 9.95ZM186.25 15.97L186.25 18.17L200.22 18.17Q200.60 18.17 200.88 18.45Q201.16 18.73 201.16 19.12L201.16 19.12L201.16 24.05Q201.16 24.44 200.88 24.72Q200.60 25 200.22 25L200.22 25L178.09 25Q177.71 25 177.43 24.72Q177.15 24.44 177.15 24.05L177.15 24.05L177.15 1.44Q177.15 1.06 177.43 0.78Q177.71 0.50 178.09 0.50L178.09 0.50L199.87 0.50Q200.25 0.50 200.53 0.78Q200.81 1.06 200.81 1.44L200.81 1.44L200.81 6.38Q200.81 6.76 200.53 7.04Q200.25 7.32 199.87 7.32L199.87 7.32L186.25 7.32L186.25 9.53L197.94 9.53Q198.32 9.53 198.61 9.81Q198.88 10.09 198.88 10.47L198.88 10.47L198.88 15.02Q198.88 15.41 198.61 15.69Q198.32 15.97 197.94 15.97L197.94 15.97L186.25 15.97Z"/>
  </g>
</svg>
